<svg width="200" height="49" viewBox="0 0 200 49" fill="none" xmlns="http://www.w3.org/2000/svg">
<path d="M35.7294 0H12.3305C5.52055 0 0 5.52055 0 12.3305V35.7294C0 42.5393 5.52055 48.0599 12.3305 48.0599H35.7294C42.5393 48.0599 48.0599 42.5393 48.0599 35.7294V12.3305C48.0599 5.52055 42.5393 0 35.7294 0Z" fill="#FBDB32"/>
<path d="M29.0836 11.0351C30.3385 13.4672 29.3842 16.4562 26.9521 17.7111C24.52 18.966 21.531 18.0117 20.2761 15.5795C19.0212 13.1474 19.9755 10.1585 22.4077 8.9036C24.8398 7.6487 27.8287 8.603 29.0836 11.0351ZM22.6101 14.3753C23.1999 15.5184 24.6047 15.9669 25.7478 15.3771C26.8909 14.7873 27.3395 13.3825 26.7496 12.2394C26.1598 11.0963 24.755 10.6477 23.6119 11.2376C22.4688 11.8274 22.0203 13.2322 22.6101 14.3753Z" fill="#171E3B"/>
<path d="M33.0924 13.5454C33.6533 13.5695 34.0941 14.0453 34.0096 14.6003C33.6886 16.7091 32.6575 18.6575 31.0709 20.1132C29.2335 21.7991 26.8016 22.6861 24.3102 22.579C21.8187 22.4718 19.4719 21.3794 17.786 19.5419C16.3303 17.9554 15.4702 15.9257 15.3315 13.7971C15.2949 13.2369 15.7749 12.8007 16.3358 12.8248L17.3275 12.8674C17.8884 12.8916 18.3151 13.3683 18.3804 13.9259C18.5352 15.2499 19.1027 16.5016 20.0154 17.4963C21.1588 18.7425 22.7504 19.4834 24.4401 19.5561C26.1298 19.6288 27.7792 19.0272 29.0254 17.8838C30.0201 16.9711 30.6929 15.7727 30.9609 14.4669C31.0737 13.9169 31.5398 13.4786 32.1007 13.5027L33.0924 13.5454Z" fill="#171E3B"/>
<path d="M9.4842 27.8576C10.8273 25.473 13.8492 24.6288 16.2337 25.9719C18.6183 27.315 19.4625 30.3369 18.1194 32.7215C16.7763 35.106 13.7544 35.9503 11.3699 34.6071C8.9853 33.264 8.1411 30.2421 9.4842 27.8576ZM15.8311 31.4325C16.4624 30.3118 16.0656 28.8915 14.9448 28.2602C13.8241 27.629 12.4038 28.0258 11.7725 29.1465C11.1413 30.2673 11.5381 31.6875 12.6588 32.3188C13.7796 32.9501 15.1998 32.5533 15.8311 31.4325Z" fill="#171E3B"/>
<path d="M9.5743 23.1541C9.2864 22.6722 9.4419 22.0425 9.9521 21.8083C11.8906 20.9182 14.0851 20.7097 16.173 21.2359C18.5911 21.8453 20.6681 23.3904 21.947 25.5311C23.2259 27.6719 23.6021 30.2331 22.9926 32.6512C22.4664 34.7391 21.2427 36.5726 19.5402 37.8577C19.0921 38.196 18.464 38.0345 18.176 37.5526L17.6669 36.7004C17.379 36.2184 17.543 35.6 17.9732 35.2392C18.9945 34.3826 19.7288 33.2209 20.0587 31.9118C20.472 30.2718 20.2169 28.5348 19.3496 27.0829C18.4822 25.631 17.0736 24.5831 15.4336 24.1698C14.1245 23.8399 12.7535 23.9358 11.5152 24.4292C10.9936 24.637 10.3713 24.4882 10.0834 24.0063L9.5743 23.1541Z" fill="#171E3B"/>
<path d="M34.2083 35.25C31.4716 35.2261 29.2725 32.9883 29.2963 30.2516C29.3202 27.5149 31.5581 25.3157 34.2948 25.3396C37.0315 25.3635 39.2306 27.6013 39.2068 30.338C39.1829 33.0747 36.945 35.2739 34.2083 35.25ZM34.2719 27.9658C32.9856 27.9546 31.9338 28.9882 31.9226 30.2745C31.9114 31.5607 32.945 32.6125 34.2312 32.6237C35.5175 32.635 36.5693 31.6014 36.5805 30.3151C36.5917 29.0289 35.5581 27.9771 34.2719 27.9658Z" fill="#171E3B"/>
<path d="M30.0522 37.5757C29.7694 38.0607 29.1429 38.2287 28.6913 37.8952C26.9755 36.628 25.7326 34.8073 25.1846 32.7251C24.5499 30.3135 24.8992 27.7485 26.1556 25.5945C27.412 23.4404 29.4727 21.8737 31.8843 21.239C33.9666 20.691 36.1632 20.8765 38.1109 21.7462C38.6235 21.9751 38.7856 22.6031 38.5028 23.0881L38.0026 23.9455C37.7198 24.4304 37.099 24.5857 36.5754 24.3834C35.3319 23.903 33.96 23.8214 32.6544 24.165C31.0189 24.5955 29.6213 25.658 28.7692 27.1189C27.917 28.5798 27.6801 30.3194 28.1106 31.955C28.4542 33.2606 29.2006 34.4145 30.2309 35.2604C30.6648 35.6166 30.8352 36.2333 30.5524 36.7183L30.0522 37.5757Z" fill="#171E3B"/>
<path d="M58.4394 31.2058C57.9973 31.2058 57.6524 31.0819 57.4048 30.8343C57.1749 30.5867 57.0599 30.2419 57.0599 29.7997V13.538C57.0599 13.0782 57.1749 12.7334 57.4048 12.5035C57.6524 12.2559 57.9973 12.1322 58.4394 12.1322C58.8815 12.1322 59.2175 12.2559 59.4475 12.5035C59.6951 12.7334 59.8188 13.0782 59.8188 13.538V29.7997C59.8188 30.2419 59.7039 30.5867 59.474 30.8343C59.2441 31.0819 58.8992 31.2058 58.4394 31.2058ZM64.7422 31.2058C64.3002 31.2058 63.9552 31.0819 63.7072 30.8343C63.4772 30.5867 63.3622 30.2419 63.3622 29.7997V13.538C63.3622 13.0782 63.4772 12.7334 63.7072 12.5035C63.9552 12.2559 64.3002 12.1322 64.7422 12.1322C65.1842 12.1322 65.5202 12.2559 65.7502 12.5035C65.9972 12.7334 66.1212 13.0782 66.1212 13.538V29.7997C66.1212 30.2419 66.0062 30.5867 65.7762 30.8343C65.5462 31.0819 65.2012 31.2058 64.7422 31.2058ZM75.6072 31.2058C75.1652 31.2058 74.8202 31.0819 74.5722 30.8343C74.3422 30.5867 74.2282 30.2419 74.2282 29.7997V14.6257H68.6042C68.2322 14.6257 67.9402 14.5284 67.7282 14.3339C67.5162 14.1217 67.4102 13.83 67.4102 13.4586C67.4102 13.0872 67.5162 12.8041 67.7282 12.6096C67.9402 12.415 68.2322 12.3179 68.6042 12.3179H82.5842C82.9732 12.3179 83.2742 12.415 83.4862 12.6096C83.6982 12.8041 83.8042 13.0872 83.8042 13.4586C83.8042 13.83 83.6982 14.1217 83.4862 14.3339C83.2742 14.5284 82.9732 14.6257 82.5842 14.6257H76.9602V29.7997C76.9602 30.2419 76.8452 30.5867 76.6152 30.8343C76.4032 31.0819 76.0672 31.2058 75.6072 31.2058ZM87.1572 31.1793C86.7332 31.1793 86.4052 31.0554 86.1752 30.8078C85.9462 30.5425 85.8312 30.18 85.8312 29.7201V19.3743C85.8312 18.9145 85.9462 18.5608 86.1752 18.3132C86.4052 18.0656 86.7332 17.9417 87.1572 17.9417C87.5812 17.9417 87.9092 18.0656 88.1392 18.3132C88.3862 18.5608 88.5102 18.9145 88.5102 19.3743V29.7201C88.5102 30.18 88.3952 30.5425 88.1652 30.8078C87.9352 31.0554 87.5992 31.1793 87.1572 31.1793ZM87.1572 15.1828C86.6262 15.1828 86.2112 15.0501 85.9102 14.7849C85.6272 14.5196 85.4862 14.1482 85.4862 13.6707C85.4862 13.1755 85.6272 12.8042 85.9102 12.5566C86.2112 12.2913 86.6262 12.1587 87.1572 12.1587C87.6882 12.1587 88.0942 12.2913 88.3772 12.5566C88.6782 12.8042 88.8282 13.1755 88.8282 13.6707C88.8282 14.1482 88.6782 14.5196 88.3772 14.7849C88.0942 15.0501 87.6882 15.1828 87.1572 15.1828ZM95.6242 31.2588C94.7222 31.2588 93.9082 31.082 93.1832 30.7283C92.4762 30.3746 91.9192 29.897 91.5122 29.2957C91.1052 28.6944 90.9022 28.0135 90.9022 27.253C90.9022 26.298 91.1412 25.5464 91.6182 24.9981C92.1132 24.4322 92.9182 24.0343 94.0322 23.8044C95.1642 23.5568 96.6852 23.4331 98.5952 23.4331H99.8422V25.0777H98.6212C97.3482 25.0777 96.3402 25.1396 95.5972 25.2634C94.8542 25.3872 94.3242 25.5994 94.0062 25.9001C93.7052 26.1831 93.5552 26.5811 93.5552 27.094C93.5552 27.766 93.7852 28.3141 94.2442 28.7386C94.7042 29.1454 95.3412 29.3487 96.1542 29.3487C96.8092 29.3487 97.3832 29.1984 97.8792 28.8978C98.3742 28.5794 98.7632 28.155 99.0462 27.6244C99.3472 27.0939 99.4972 26.4838 99.4972 25.7941V22.7433C99.4972 21.7352 99.2852 21.0101 98.8602 20.568C98.4362 20.1258 97.7372 19.9048 96.7642 19.9048C96.1992 19.9048 95.6062 19.9755 94.9872 20.117C94.3862 20.2585 93.7582 20.4972 93.1042 20.8333C92.8032 20.9747 92.5472 21.0189 92.3342 20.9659C92.1222 20.9128 91.9542 20.7979 91.8302 20.621C91.7062 20.4265 91.6362 20.2232 91.6182 20.011C91.6182 19.7811 91.6712 19.5599 91.7772 19.3477C91.9012 19.1355 92.1042 18.9763 92.3872 18.8702C93.1662 18.4988 93.9352 18.2336 94.6952 18.0744C95.4562 17.9153 96.1722 17.8356 96.8442 17.8356C98.0292 17.8356 99.0022 18.0213 99.7622 18.3927C100.54 18.7641 101.115 19.3301 101.486 20.0906C101.858 20.851 102.044 21.8326 102.044 23.0352V29.8528C102.044 30.2772 101.937 30.6132 101.725 30.8608C101.513 31.0907 101.204 31.2058 100.797 31.2058C100.408 31.2058 100.098 31.0907 99.8682 30.8608C99.6382 30.6132 99.5232 30.2772 99.5232 29.8528V28.1285H99.7622C99.6212 28.7828 99.3552 29.3488 98.9662 29.8263C98.5952 30.2862 98.1262 30.6398 97.5602 30.8874C96.9942 31.135 96.3492 31.2588 95.6242 31.2588ZM106.264 31.2058C105.84 31.2058 105.513 31.0907 105.283 30.8608C105.053 30.6132 104.938 30.2772 104.938 29.8528V19.2416C104.938 18.7994 105.053 18.4634 105.283 18.2335C105.513 18.0036 105.831 17.8887 106.238 17.8887C106.662 17.8887 106.981 18.0036 107.193 18.2335C107.423 18.4634 107.538 18.7994 107.538 19.2416V21.3109L107.246 20.8333C107.635 19.8429 108.245 19.1001 109.076 18.6049C109.908 18.092 110.863 17.8356 111.941 17.8356C112.967 17.8356 113.816 18.0301 114.488 18.4192C115.178 18.7906 115.691 19.3654 116.027 20.1435C116.363 20.904 116.531 21.8679 116.531 23.0352V29.8528C116.531 30.2772 116.416 30.6132 116.186 30.8608C115.956 31.0907 115.629 31.2058 115.204 31.2058C114.762 31.2058 114.426 31.0907 114.196 30.8608C113.966 30.6132 113.851 30.2772 113.851 29.8528V23.1943C113.851 22.0802 113.63 21.2665 113.188 20.7537C112.764 20.2408 112.092 19.9844 111.172 19.9844C110.093 19.9844 109.227 20.3204 108.572 20.9924C107.936 21.6645 107.617 22.5665 107.617 23.6984V29.8528C107.617 30.7547 107.166 31.2058 106.264 31.2058ZM126.112 31.3118C125.369 31.3118 124.609 31.25 123.831 31.1262C123.07 31.0201 122.336 30.8608 121.629 30.6486C120.939 30.4364 120.32 30.1711 119.772 29.8528C119.383 29.6405 119.109 29.3665 118.949 29.0305C118.79 28.6768 118.728 28.3231 118.764 27.9694C118.817 27.6157 118.949 27.3061 119.162 27.0408C119.392 26.7578 119.674 26.581 120.01 26.5102C120.364 26.4218 120.753 26.4837 121.178 26.6959C121.903 27.1027 122.69 27.4034 123.539 27.5979C124.405 27.7924 125.263 27.8897 126.112 27.8897C127.403 27.8897 128.323 27.6953 128.871 27.3062C129.419 26.8994 129.693 26.3954 129.693 25.7941C129.693 25.2812 129.499 24.8744 129.11 24.5737C128.721 24.273 128.04 24.0166 127.067 23.8044L124.069 23.1677C122.371 22.814 121.107 22.2127 120.276 21.3638C119.462 20.4972 119.055 19.3654 119.055 17.9682C119.055 17.084 119.241 16.2794 119.613 15.5543C119.984 14.8292 120.506 14.2012 121.178 13.6707C121.85 13.1401 122.646 12.7334 123.565 12.4504C124.503 12.1674 125.528 12.026 126.642 12.026C127.633 12.026 128.606 12.1497 129.561 12.3973C130.516 12.6273 131.356 12.9721 132.081 13.4319C132.434 13.6442 132.673 13.9184 132.797 14.2544C132.938 14.5727 132.983 14.8998 132.93 15.2358C132.894 15.5542 132.762 15.8371 132.532 16.0847C132.319 16.3323 132.045 16.4916 131.709 16.5623C131.373 16.6331 130.967 16.5534 130.489 16.3235C129.905 16.0228 129.286 15.8018 128.632 15.6603C127.978 15.5188 127.306 15.4481 126.616 15.4481C125.873 15.4481 125.237 15.5454 124.706 15.74C124.193 15.9345 123.795 16.2086 123.512 16.5623C123.247 16.916 123.114 17.3227 123.114 17.7825C123.114 18.2954 123.3 18.711 123.671 19.0293C124.043 19.3477 124.688 19.6041 125.608 19.7987L128.606 20.4354C130.339 20.8068 131.63 21.408 132.479 22.2392C133.328 23.0528 133.752 24.1316 133.752 25.4757C133.752 26.3599 133.575 27.1646 133.221 27.8897C132.868 28.5971 132.355 29.2073 131.683 29.7201C131.011 30.233 130.206 30.6309 129.269 30.9139C128.331 31.1792 127.279 31.3118 126.112 31.3118ZM146.369 36.0339C145.715 36.0339 145.22 35.857 144.884 35.5033C144.548 35.1673 144.38 34.6632 144.38 33.9911V28.5795H144.672C144.389 29.3931 143.849 30.0562 143.053 30.569C142.275 31.0642 141.373 31.3118 140.348 31.3118C139.216 31.3118 138.216 31.0378 137.35 30.4895C136.501 29.9413 135.838 29.1542 135.36 28.1285C134.883 27.1027 134.644 25.8914 134.644 24.4942C134.644 23.0971 134.883 21.8945 135.36 20.8864C135.838 19.8783 136.501 19.1002 137.35 18.5519C138.216 18.0037 139.216 17.7296 140.348 17.7296C141.391 17.7296 142.311 17.9949 143.106 18.5254C143.92 19.0383 144.451 19.7191 144.698 20.568L144.406 21.6026V19.7987C144.406 19.1443 144.574 18.6492 144.91 18.3132C145.264 17.9595 145.759 17.7825 146.396 17.7825C147.033 17.7825 147.519 17.9595 147.855 18.3132C148.209 18.6492 148.386 19.1443 148.386 19.7987V33.9911C148.386 34.6632 148.209 35.1673 147.855 35.5033C147.501 35.857 147.006 36.0339 146.369 36.0339ZM141.541 28.3141C142.125 28.3141 142.629 28.1727 143.053 27.8897C143.478 27.6067 143.814 27.1912 144.061 26.643C144.309 26.0771 144.433 25.3608 144.433 24.4942C144.433 23.2032 144.168 22.2569 143.637 21.6556C143.106 21.0366 142.408 20.7271 141.541 20.7271C140.975 20.7271 140.471 20.8599 140.029 21.1252C139.605 21.3904 139.269 21.806 139.021 22.372C138.791 22.9202 138.676 23.6276 138.676 24.4942C138.676 25.7852 138.942 26.749 139.472 27.3857C140.003 28.0047 140.692 28.3141 141.541 28.3141ZM155.478 31.3118C154.381 31.3118 153.471 31.1084 152.745 30.7017C152.02 30.2949 151.481 29.6848 151.127 28.8712C150.791 28.04 150.623 27.0144 150.623 25.7941V19.7987C150.623 19.1266 150.791 18.6226 151.127 18.2866C151.481 17.9505 151.976 17.7825 152.613 17.7825C153.249 17.7825 153.745 17.9505 154.098 18.2866C154.452 18.6226 154.629 19.1266 154.629 19.7987V25.9001C154.629 26.6783 154.788 27.2619 155.106 27.6509C155.425 28.0223 155.929 28.208 156.619 28.208C157.379 28.208 157.998 27.9428 158.475 27.4122C158.971 26.864 159.218 26.1477 159.218 25.2634V19.7987C159.218 19.1266 159.386 18.6226 159.722 18.2866C160.076 17.9505 160.571 17.7825 161.208 17.7825C161.862 17.7825 162.357 17.9505 162.693 18.2866C163.047 18.6226 163.224 19.1266 163.224 19.7987V29.2162C163.224 30.578 162.578 31.2588 161.287 31.2588C160.651 31.2588 160.164 31.082 159.828 30.7283C159.492 30.3746 159.324 29.8706 159.324 29.2162V27.4387L159.722 28.4733C159.333 29.3753 158.776 30.0738 158.051 30.569C157.326 31.0642 156.468 31.3118 155.478 31.3118ZM169.931 31.3118C168.976 31.3118 168.119 31.1262 167.358 30.7548C166.598 30.3834 166.005 29.8794 165.581 29.2427C165.156 28.6061 164.944 27.8898 164.944 27.094C164.944 26.139 165.192 25.3872 165.687 24.839C166.182 24.273 166.987 23.8752 168.101 23.6453C169.215 23.3977 170.692 23.2739 172.531 23.2739H173.937V25.3431H172.558C171.656 25.3431 170.922 25.3961 170.356 25.5022C169.808 25.5906 169.41 25.7498 169.162 25.9797C168.932 26.2096 168.817 26.5279 168.817 26.9347C168.817 27.4299 168.985 27.8367 169.321 28.1551C169.675 28.4734 170.179 28.6326 170.833 28.6326C171.346 28.6326 171.797 28.5175 172.186 28.2876C172.593 28.04 172.911 27.7129 173.141 27.3062C173.371 26.8817 173.486 26.4041 173.486 25.8736V22.823C173.486 22.0448 173.309 21.4965 172.956 21.1781C172.602 20.8421 172.001 20.6742 171.152 20.6742C170.674 20.6742 170.153 20.736 169.587 20.8598C169.038 20.9659 168.428 21.1516 167.756 21.4169C167.367 21.5937 167.022 21.638 166.722 21.5496C166.421 21.4435 166.191 21.2665 166.032 21.0189C165.873 20.7537 165.793 20.4707 165.793 20.1701C165.793 19.8517 165.881 19.5511 166.058 19.2681C166.235 18.9674 166.527 18.7464 166.934 18.6049C167.765 18.2689 168.543 18.0391 169.268 17.9153C170.011 17.7915 170.692 17.7296 171.311 17.7296C172.673 17.7296 173.787 17.933 174.653 18.3397C175.538 18.7288 176.201 19.3388 176.643 20.1701C177.085 20.9836 177.306 22.0359 177.306 23.3269V29.2162C177.306 29.8706 177.147 30.3746 176.829 30.7283C176.51 31.082 176.051 31.2588 175.449 31.2588C174.848 31.2588 174.379 31.082 174.043 30.7283C173.725 30.3746 173.566 29.8706 173.566 29.2162V28.2346L173.751 28.3938C173.645 28.9951 173.415 29.5168 173.062 29.9589C172.726 30.3833 172.292 30.7195 171.762 30.9671C171.231 31.197 170.621 31.3118 169.931 31.3118ZM184.565 31.3118C183.434 31.3118 182.434 31.0378 181.568 30.4895C180.719 29.9413 180.056 29.1542 179.578 28.1285C179.101 27.1027 178.862 25.8914 178.862 24.4942C178.862 23.0971 179.101 21.8945 179.578 20.8864C180.056 19.8783 180.719 19.1002 181.568 18.5519C182.434 18.0037 183.434 17.7296 184.565 17.7296C185.591 17.7296 186.493 17.9771 187.271 18.4723C188.067 18.9674 188.606 19.613 188.889 20.4088H188.598V14.1217C188.598 13.4496 188.766 12.9456 189.102 12.6096C189.438 12.2559 189.933 12.0791 190.587 12.0791C191.224 12.0791 191.719 12.2559 192.073 12.6096C192.427 12.9456 192.603 13.4496 192.603 14.1217V29.2162C192.603 29.8706 192.427 30.3746 192.073 30.7283C191.737 31.082 191.25 31.2588 190.614 31.2588C189.977 31.2588 189.482 31.082 189.128 30.7283C188.792 30.3746 188.624 29.8706 188.624 29.2162V27.4122L188.916 28.4468C188.668 29.3134 188.138 30.012 187.324 30.5426C186.528 31.0555 185.609 31.3118 184.565 31.3118ZM185.759 28.3141C186.343 28.3141 186.847 28.1727 187.271 27.8897C187.696 27.6067 188.032 27.1912 188.279 26.643C188.527 26.0771 188.651 25.3608 188.651 24.4942C188.651 23.2032 188.385 22.2569 187.855 21.6556C187.324 21.0366 186.626 20.7271 185.759 20.7271C185.193 20.7271 184.689 20.8599 184.247 21.1252C183.823 21.3904 183.487 21.806 183.239 22.372C183.009 22.9202 182.894 23.6276 182.894 24.4942C182.894 25.7852 183.159 26.749 183.69 27.3857C184.221 28.0047 184.91 28.3141 185.759 28.3141ZM196.831 31.1527C196.123 31.1527 195.557 30.9405 195.133 30.5161C194.726 30.0916 194.523 29.5433 194.523 28.8712C194.523 28.2169 194.726 27.6863 195.133 27.2796C195.557 26.8551 196.123 26.643 196.831 26.643C197.538 26.643 198.086 26.8551 198.475 27.2796C198.882 27.6863 199.086 28.2169 199.086 28.8712C199.086 29.5433 198.882 30.0916 198.475 30.5161C198.086 30.9405 197.538 31.1527 196.831 31.1527Z" fill="white"/>
</svg>
